<?xml version="1.0" encoding="utf-8"?>
<!-- Generator: Adobe Illustrator 25.2.3, SVG Export Plug-In . SVG Version: 6.00 Build 0)  -->
<svg version="1.1" id="Layer_1" xmlns="http://www.w3.org/2000/svg" xmlns:xlink="http://www.w3.org/1999/xlink" x="0px" y="0px"
	 viewBox="0 0 25 40" style="enable-background:new 0 0 25 40;" xml:space="preserve">
<style type="text/css">
	.st0{fill-rule:evenodd;clip-rule:evenodd;fill:#4067A0;}
</style>
<path class="st0" d="M5.8,14.5L0,7.4l6.6,1.1L5.8,1l4.8,5.5l2-6.5l2,6.5L19.2,1l-0.8,7.6L25,7.4l-5.8,7.1H5.8z M8.1,10.1L7.5,5
	l3.6,4.1l1.4-4.6l1.4,4.6L17.5,5l-0.6,5.1l4.9-0.8l-3.2,3.9H6.4L3.2,9.3L8.1,10.1z M20.1,40H5.3l-4.9-4.8V20.6l4.9-4.8h14.8l4.9,4.8
	v14.5L20.1,40z M7.7,27.2l4.2-4.1l-6.1-5.9l-4.1,4v0.2L7.7,27.2z M18,17.1H7.5l5.3,5.1L18,17.1z M8.6,28.1l4.2-4.1l4,3.9L12.6,32
	L8.6,28.1z M13.7,23.1l4,3.9l6-5.8v0l-4-3.9L13.7,23.1z M13.6,32.9l4.2-4.1l5.9,5.8v0l-4.2,4.1h0L13.6,32.9z M18.7,27.9l5,4.9V23
	L18.7,27.9z M6.7,28.1l-5.1-5v10L6.7,28.1z M7.7,29l4,3.9l-5.9,5.8h0l-4-3.9L7.7,29z M17.6,38.7h-10l5-4.9L17.6,38.7z"/>
</svg>
